<svg width="24" height="24" viewBox="0 0 24 24" fill="none" xmlns="http://www.w3.org/2000/svg">
<g clip-path="url(#clip0_1_451)">
<path d="M23.2969 8.48437H20.8223L15.4084 1.71702C15.1659 1.41388 14.7234 1.36462 14.4202 1.60724C14.1169 1.84982 14.0677 2.29227 14.3104 2.59551L19.0215 8.48437H4.97855L9.68967 2.59551C9.93225 2.29227 9.88308 1.84977 9.57989 1.60724C9.27661 1.36462 8.83416 1.41384 8.59163 1.71702L3.1777 8.48437H0.703125C0.314812 8.48437 0 8.79918 0 9.18749V10.5937C0 10.9821 0.314812 11.2969 0.703125 11.2969H23.2969C23.6852 11.2969 24 10.9821 24 10.5937V9.18749C24 8.79918 23.6852 8.48437 23.2969 8.48437Z" fill="#616575"/>
<path d="M4.24489 22.0369C4.33114 22.3388 4.60705 22.5469 4.92097 22.5469H19.0772C19.3911 22.5469 19.667 22.3388 19.7533 22.0369L22.4201 12.7031H1.57812L4.24489 22.0369ZM15.2196 18.9157L15.9227 14.697C15.9866 14.3139 16.3488 14.055 16.7319 14.119C17.1149 14.1828 17.3737 14.5451 17.3098 14.9281L16.6067 19.1469C16.5494 19.4908 16.2515 19.7346 15.914 19.7346C15.8756 19.7346 15.8367 19.7314 15.7976 19.7249C15.4145 19.661 15.1558 19.2987 15.2196 18.9157ZM11.296 14.8125C11.296 14.4242 11.6108 14.1094 11.9991 14.1094C12.3874 14.1094 12.7022 14.4242 12.7022 14.8125V19.0312C12.7022 19.4196 12.3874 19.7344 11.9991 19.7344C11.6108 19.7344 11.296 19.4196 11.296 19.0312V14.8125ZM7.31319 14.119C7.6963 14.0552 8.0585 14.3139 8.12234 14.697L8.82547 18.9157C8.88931 19.2987 8.63056 19.661 8.2475 19.7249C8.20841 19.7314 8.16945 19.7346 8.13106 19.7346C7.79352 19.7346 7.49567 19.4909 7.43834 19.1469L6.73522 14.9281C6.67137 14.5451 6.93013 14.1828 7.31319 14.119Z" fill="#616575"/>
</g>
<defs>
<clipPath id="clip0_1_451">
<rect width="24" height="24" fill="white"/>
</clipPath>
</defs>
</svg>
