<svg width="24" height="24" viewBox="0 0 24 24" fill="none" xmlns="http://www.w3.org/2000/svg">
<g clip-path="url(#clip0_1_440)">
<path d="M1.96268 2.94558C3.20406 1.61128 4.94355 0.852075 6.76601 0.849261C8.58993 0.851372 10.3312 1.61017 11.5745 2.94473L11.9982 3.39248L12.422 2.94473C14.889 0.289535 19.0414 0.137052 21.6966 2.60408C21.8142 2.71344 21.9279 2.82702 22.0372 2.94473C24.6543 5.76753 24.6543 10.13 22.0372 12.9528L12.6209 22.8829C12.2952 23.2268 11.7523 23.2416 11.4084 22.9158C11.3971 22.9051 11.3861 22.8942 11.3755 22.8829L1.96263 12.9528C-0.654211 10.1303 -0.654211 5.76808 1.96268 2.94558Z" fill="#616575"/>
</g>
<defs>
<clipPath id="clip0_1_440">
<rect width="24" height="24" fill="white" transform="matrix(-1 0 0 1 24 0)"/>
</clipPath>
</defs>
</svg>
