<svg width="63" height="36" viewBox="0 0 63 36" fill="none" xmlns="http://www.w3.org/2000/svg">
<path d="M0.607 0.755999H4.135V27H0.607V0.755999ZM10.0995 13.716C11.6595 12.204 13.5915 11.448 15.8955 11.448C18.1995 11.448 20.1195 12.204 21.6555 13.716C23.2155 15.204 23.9955 17.112 23.9955 19.44C23.9955 21.744 23.2155 23.664 21.6555 25.2C20.1195 26.712 18.1995 27.468 15.8955 27.468C13.5915 27.468 11.6595 26.712 10.0995 25.2C8.56347 23.664 7.79547 21.744 7.79547 19.44C7.79547 17.112 8.56347 15.204 10.0995 13.716ZM12.6195 23.004C13.4355 23.868 14.5275 24.3 15.8955 24.3C17.2635 24.3 18.3555 23.868 19.1715 23.004C19.9875 22.116 20.3955 20.94 20.3955 19.476C20.3955 17.868 19.9515 16.656 19.0635 15.84C18.1995 15.024 17.1435 14.616 15.8955 14.616C14.6475 14.616 13.5795 15.024 12.6915 15.84C11.8275 16.656 11.3955 17.868 11.3955 19.476C11.3955 20.94 11.8035 22.116 12.6195 23.004ZM38.7653 13.5V11.844H42.2933V25.776C42.2933 27.744 42.1253 29.34 41.7893 30.564C41.4533 31.812 40.7933 32.844 39.8093 33.66C38.4893 34.74 36.8093 35.28 34.7693 35.28C32.7053 35.28 31.0493 34.656 29.8013 33.408C28.5773 32.184 27.8333 30.612 27.5693 28.692H30.9893C31.1573 29.652 31.5293 30.444 32.1053 31.068C32.7533 31.764 33.6653 32.112 34.8413 32.112C36.0173 32.112 36.9413 31.776 37.6133 31.104C38.3813 30.36 38.7653 29.088 38.7653 27.288V25.308C37.6373 26.748 36.1013 27.468 34.1573 27.468C32.1173 27.468 30.4493 26.784 29.1533 25.416C27.6413 23.832 26.8853 21.828 26.8853 19.404C26.8853 16.98 27.6293 15.024 29.1173 13.536C30.4853 12.144 32.2013 11.448 34.2653 11.448C36.1133 11.448 37.6133 12.132 38.7653 13.5ZM34.6973 14.616C33.6173 14.616 32.7293 14.952 32.0333 15.624C31.0013 16.584 30.4853 17.868 30.4853 19.476C30.4853 21.132 30.9893 22.404 31.9973 23.292C32.7653 23.964 33.6653 24.3 34.6973 24.3C35.8733 24.3 36.8573 23.892 37.6493 23.076C38.5373 22.116 38.9813 20.928 38.9813 19.512C38.9813 17.88 38.5013 16.608 37.5413 15.696C36.8213 14.976 35.8733 14.616 34.6973 14.616ZM48.2792 13.716C49.8392 12.204 51.7712 11.448 54.0752 11.448C56.3792 11.448 58.2992 12.204 59.8352 13.716C61.3952 15.204 62.1752 17.112 62.1752 19.44C62.1752 21.744 61.3952 23.664 59.8352 25.2C58.2992 26.712 56.3792 27.468 54.0752 27.468C51.7712 27.468 49.8392 26.712 48.2792 25.2C46.7432 23.664 45.9752 21.744 45.9752 19.44C45.9752 17.112 46.7432 15.204 48.2792 13.716ZM50.7992 23.004C51.6152 23.868 52.7072 24.3 54.0752 24.3C55.4432 24.3 56.5352 23.868 57.3512 23.004C58.1672 22.116 58.5752 20.94 58.5752 19.476C58.5752 17.868 58.1312 16.656 57.2432 15.84C56.3792 15.024 55.3232 14.616 54.0752 14.616C52.8272 14.616 51.7592 15.024 50.8712 15.84C50.0072 16.656 49.5752 17.868 49.5752 19.476C49.5752 20.94 49.9832 22.116 50.7992 23.004Z" fill="#515562"/>
</svg>
