<svg width="16" height="16" viewBox="0 0 16 16" fill="none" xmlns="http://www.w3.org/2000/svg">
<path d="M10.6161 11.6696L11.9286 5.48214C11.9821 5.22024 11.9509 5.03274 11.8348 4.91964C11.7187 4.80655 11.5655 4.78571 11.375 4.85714L3.66071 7.83036C3.48809 7.89583 3.37054 7.97024 3.30804 8.05357C3.24554 8.13691 3.2381 8.21577 3.28571 8.29018C3.33333 8.36458 3.42857 8.42262 3.57143 8.46429L5.54464 9.08036L10.125 6.19643C10.25 6.11309 10.3452 6.09524 10.4107 6.14286C10.4524 6.17262 10.4405 6.21726 10.375 6.27679L6.66964 9.625L6.52679 11.6607C6.66369 11.6607 6.79762 11.5952 6.92857 11.4643L7.89286 10.5357L9.89286 12.0089C10.2738 12.2232 10.5149 12.1101 10.6161 11.6696ZM15.3661 4.89286C15.7887 5.88096 16 6.91666 16 8C16 9.08334 15.7887 10.119 15.3661 11.1071C14.9435 12.0952 14.375 12.9464 13.6607 13.6607C12.9464 14.375 12.0952 14.9435 11.1071 15.3661C10.119 15.7887 9.08334 16 8 16C6.91666 16 5.88096 15.7887 4.89286 15.3661C3.90476 14.9435 3.05358 14.375 2.33929 13.6607C1.625 12.9464 1.05655 12.0952 0.633929 11.1071C0.211307 10.119 0 9.08334 0 8C0 6.91666 0.211307 5.88096 0.633929 4.89286C1.05655 3.90476 1.625 3.05358 2.33929 2.33929C3.05358 1.625 3.90476 1.05655 4.89286 0.633929C5.88096 0.211307 6.91666 0 8 0C9.08334 0 10.119 0.211307 11.1071 0.633929C12.0952 1.05655 12.9464 1.625 13.6607 2.33929C14.375 3.05358 14.9435 3.90476 15.3661 4.89286Z" fill="#FFFFFF"/>
</svg>
