<svg width="24" height="24" viewBox="0 0 24 24" fill="none" xmlns="http://www.w3.org/2000/svg">
<g clip-path="url(#clip0_1_446)">
<path d="M11.8295 11.5609C13.4177 11.5609 14.793 10.9912 15.9167 9.86733C17.0405 8.74362 17.6101 7.36868 17.6101 5.78025C17.6101 4.19237 17.0405 2.81725 15.9166 1.69317C14.7927 0.569639 13.4175 0 11.8295 0C10.241 0 8.86609 0.569639 7.74237 1.69335C6.61865 2.81707 6.04883 4.19218 6.04883 5.78025C6.04883 7.36868 6.61865 8.7438 7.74255 9.86751C8.86646 10.991 10.2416 11.5609 11.8295 11.5609Z" fill="#616575"/>
<path d="M21.9435 18.4547C21.9111 17.9871 21.8456 17.477 21.7491 16.9383C21.6517 16.3955 21.5262 15.8825 21.3761 15.4136C21.221 14.9289 21.0101 14.4502 20.7493 13.9916C20.4787 13.5155 20.1608 13.1009 19.8041 12.7598C19.4312 12.403 18.9745 12.116 18.4464 11.9067C17.9202 11.6985 17.337 11.5931 16.7131 11.5931C16.4681 11.5931 16.2312 11.6936 15.7736 11.9915C15.492 12.1752 15.1626 12.3876 14.7949 12.6225C14.4805 12.8228 14.0546 13.0105 13.5286 13.1804C13.0153 13.3465 12.4942 13.4307 11.9799 13.4307C11.4655 13.4307 10.9446 13.3465 10.4308 13.1804C9.90527 13.0107 9.47937 12.823 9.16534 12.6227C8.80115 12.3899 8.47156 12.1775 8.18573 11.9913C7.7287 11.6934 7.49158 11.5929 7.24658 11.5929C6.62256 11.5929 6.03955 11.6985 5.51349 11.9069C4.98578 12.1158 4.52893 12.4028 4.15558 12.76C3.79907 13.1013 3.48102 13.5157 3.21075 13.9916C2.9502 14.4502 2.73926 14.9287 2.58398 15.4137C2.43402 15.8827 2.30859 16.3955 2.21118 16.9383C2.11469 17.4762 2.04913 17.9865 2.01672 18.4553C1.98486 18.9145 1.96875 19.3911 1.96875 19.8725C1.96875 21.1253 2.367 22.1395 3.15234 22.8875C3.92798 23.6256 4.95428 24.0001 6.20233 24.0001H17.7585C19.0065 24.0001 20.0325 23.6258 20.8083 22.8875C21.5938 22.1401 21.9921 21.1257 21.9921 19.8723C21.9919 19.3888 21.9756 18.9118 21.9435 18.4547Z" fill="#616575"/>
</g>
<defs>
<clipPath id="clip0_1_446">
<rect width="24" height="24" fill="white"/>
</clipPath>
</defs>
</svg>
