<svg width="16" height="16" viewBox="0 0 16 16" fill="none" xmlns="http://www.w3.org/2000/svg">
<path d="M8 0C3.58167 0 0 3.58167 0 8C0 12.4183 3.58167 16 8 16C12.4183 16 16 12.4183 16 8C16 3.58167 12.4183 0 8 0ZM11.0767 9.02583C11.0767 9.02583 11.7842 9.72417 11.9583 10.0483C11.9633 10.055 11.9658 10.0617 11.9675 10.065C12.0383 10.1842 12.055 10.2767 12.02 10.3458C11.9617 10.4608 11.7617 10.5175 11.6933 10.5225H10.4433C10.3567 10.5225 10.175 10.5 9.955 10.3483C9.78583 10.23 9.61917 10.0358 9.45667 9.84667C9.21417 9.565 9.00417 9.32167 8.7925 9.32167C8.76562 9.32162 8.7389 9.32584 8.71333 9.33417C8.55333 9.38583 8.34833 9.61417 8.34833 10.2225C8.34833 10.4125 8.19833 10.5217 8.0925 10.5217H7.52C7.325 10.5217 6.30917 10.4533 5.40917 9.50417C4.3075 8.34167 3.31583 6.01 3.3075 5.98833C3.245 5.8375 3.37417 5.75667 3.515 5.75667H4.7775C4.94583 5.75667 5.00083 5.85917 5.03917 5.95C5.08417 6.05583 5.24917 6.47667 5.52 6.95C5.95917 7.72167 6.22833 8.035 6.44417 8.035C6.48464 8.03452 6.52439 8.02423 6.56 8.005C6.84167 7.84833 6.78917 6.84417 6.77667 6.63583C6.77667 6.59667 6.77583 6.18667 6.63167 5.99C6.52833 5.8475 6.3525 5.79333 6.24583 5.77333C6.28901 5.71376 6.34589 5.66545 6.41167 5.6325C6.605 5.53583 6.95333 5.52167 7.29917 5.52167H7.49167C7.86667 5.52667 7.96333 5.55083 8.09917 5.585C8.37417 5.65083 8.38 5.82833 8.35583 6.43583C8.34833 6.60833 8.34083 6.80333 8.34083 7.03333C8.34083 7.08333 8.33833 7.13667 8.33833 7.19333C8.33 7.5025 8.32 7.85333 8.53833 7.9975C8.56681 8.01536 8.59972 8.02488 8.63333 8.025C8.70917 8.025 8.9375 8.025 9.55583 6.96417C9.74653 6.62271 9.91224 6.2679 10.0517 5.9025C10.0642 5.88083 10.1008 5.81417 10.1442 5.78833C10.1761 5.77203 10.2116 5.76374 10.2475 5.76417H11.7317C11.8933 5.76417 12.0042 5.78833 12.025 5.85083C12.0617 5.95 12.0183 6.2525 11.3408 7.17L11.0383 7.56917C10.4242 8.37417 10.4242 8.415 11.0767 9.02583Z" fill="#FFFFFF"/>
</svg>
