<svg width="12" height="13" viewBox="0 0 12 13" fill="none" xmlns="http://www.w3.org/2000/svg">
<path fill-rule="evenodd" clip-rule="evenodd" d="M8.7075 7.69102C8.5585 7.61652 7.828 7.25752 7.692 7.20752C7.556 7.15802 7.457 7.13352 7.3575 7.28252C7.2585 7.43052 6.974 7.76552 6.8875 7.86452C6.8005 7.96402 6.714 7.97602 6.5655 7.90202C6.417 7.82702 5.938 7.67052 5.3705 7.16452C4.929 6.77052 4.6305 6.28402 4.544 6.13502C4.4575 5.98652 4.5345 5.90602 4.609 5.83202C4.676 5.76552 4.7575 5.65852 4.832 5.57202C4.9065 5.48502 4.931 5.42302 4.9805 5.32352C5.0305 5.22452 5.0055 5.13802 4.968 5.06352C4.931 4.98902 4.634 4.25752 4.51 3.96002C4.3895 3.67052 4.267 3.71002 4.176 3.70502C4.089 3.70102 3.99 3.70002 3.891 3.70002C3.792 3.70002 3.631 3.73702 3.495 3.88602C3.3585 4.03452 2.975 4.39402 2.975 5.12552C2.975 5.85652 3.507 6.56302 3.5815 6.66252C3.656 6.76152 4.629 8.26252 6.1195 8.90602C6.4745 9.05902 6.751 9.15052 6.9665 9.21852C7.3225 9.33202 7.6465 9.31602 7.9025 9.27752C8.1875 9.23502 8.7815 8.91802 8.9055 8.57102C9.029 8.22402 9.029 7.92652 8.992 7.86452C8.955 7.80252 8.856 7.76552 8.707 7.69102H8.7075ZM5.9965 11.3925H5.9945C5.10922 11.3927 4.24019 11.1547 3.4785 10.7035L3.2985 10.5965L1.4275 11.0875L1.927 9.26352L1.8095 9.07652C1.31457 8.28869 1.05265 7.37691 1.054 6.44652C1.055 3.72152 3.272 1.50452 5.9985 1.50452C7.3185 1.50452 8.5595 2.01952 9.4925 2.95352C9.95269 3.41181 10.3174 3.9568 10.5656 4.55697C10.8138 5.15714 10.9406 5.80056 10.9385 6.45002C10.9375 9.17502 8.7205 11.3925 5.9965 11.3925ZM10.2025 2.24402C9.6516 1.68948 8.99612 1.24979 8.27404 0.950421C7.55197 0.651052 6.77767 0.497962 5.996 0.50002C2.719 0.50002 0.051 3.16752 0.05 6.44602C0.0495 7.49402 0.323 8.51702 0.8435 9.41852L0 12.5L3.152 11.673C4.02394 12.1481 5.00105 12.397 5.994 12.397H5.9965C9.2735 12.397 11.9415 9.72952 11.9425 6.45052C11.9449 5.66916 11.7924 4.89507 11.4937 4.17304C11.195 3.451 10.7562 2.79536 10.2025 2.24402Z" fill="white"/>
</svg>
