<svg width="16" height="12" viewBox="0 0 16 12" fill="none" xmlns="http://www.w3.org/2000/svg">
<path d="M15.6671 2.33797C15.5765 2.01479 15.4 1.7222 15.1564 1.4913C14.9059 1.25331 14.5989 1.08306 14.2644 0.996636C13.0124 0.666636 7.99641 0.666636 7.99641 0.666636C5.9053 0.642844 3.8147 0.747486 1.73641 0.979969C1.40187 1.07278 1.09545 1.24683 0.844411 1.48664C0.597745 1.72397 0.419078 2.01664 0.325745 2.3373C0.10154 3.54513 -0.00739387 4.77153 0.000411455 5.99997C-0.00758854 7.2273 0.101078 8.4533 0.325745 9.66264C0.417078 9.98197 0.595078 10.2733 0.842411 10.5086C1.08974 10.744 1.39774 10.914 1.73641 11.004C3.00508 11.3333 7.99641 11.3333 7.99641 11.3333C10.0902 11.3571 12.1835 11.2525 14.2644 11.02C14.5989 10.9335 14.9059 10.7633 15.1564 10.5253C15.4031 10.29 15.5784 9.9973 15.6664 9.67864C15.8965 8.47127 16.0083 7.24436 16.0004 6.0153C16.0177 4.78104 15.906 3.54835 15.6671 2.3373V2.33797ZM6.40174 8.28264V3.71797L10.5751 6.00064L6.40174 8.28264Z" fill="#FFFFFF"/>
</svg>
